<svg width="110" height="110" viewBox="0 0 110 110" fill="none" xmlns="http://www.w3.org/2000/svg">
<path d="M17.1417 12.6042C15.9261 12.6042 14.7603 13.0871 13.9008 13.9466C13.0412 14.8062 12.5583 15.9719 12.5583 17.1875V92.8125C12.5583 94.0281 13.0412 95.1939 13.9008 96.0534C14.7603 96.913 15.9261 97.3958 17.1417 97.3958H92.8584C94.0739 97.3958 95.2397 96.913 96.0993 96.0534C96.9588 95.1939 97.4417 94.0281 97.4417 92.8125V17.1875C97.4417 15.9719 96.9588 14.8062 96.0993 13.9466C95.2397 13.0871 94.0739 12.6042 92.8584 12.6042H17.1417Z" stroke="#EC1F24" stroke-width="7" stroke-linecap="round" stroke-linejoin="round"/>
<path d="M71.7751 27.775C73.8011 27.775 75.7816 28.3758 77.4662 29.5014C79.1508 30.627 80.4637 32.2269 81.2391 34.0987C82.0144 35.9705 82.2172 38.0301 81.822 40.0172C81.4267 42.0043 80.4511 43.8296 79.0185 45.2622C77.5859 46.6948 75.7606 47.6704 73.7735 48.0657C71.7864 48.461 69.7267 48.2581 67.8549 47.4828C65.9831 46.7074 64.3833 45.3945 63.2577 43.7099C62.1321 42.0253 61.5313 40.0448 61.5313 38.0188C61.5313 35.302 62.6106 32.6964 64.5316 30.7753C66.4527 28.8543 69.0582 27.775 71.7751 27.775ZM45.8334 48.125L62.3792 64.6709C62.5286 64.8233 62.7069 64.9444 62.9036 65.0271C63.1004 65.1098 63.3116 65.1523 63.5251 65.1523C63.7385 65.1523 63.9498 65.1098 64.1465 65.0271C64.3433 64.9444 64.5215 64.8233 64.6709 64.6709L67.8334 61.5084C68.1381 61.2061 68.55 61.0365 68.9792 61.0365C69.4085 61.0365 69.8203 61.2061 70.1251 61.5084L88.023 79.4063C88.2521 79.6307 88.4086 79.9186 88.4725 80.2328C88.5364 80.5471 88.5046 80.8733 88.3812 81.1693C88.2579 81.4653 88.0487 81.7175 87.7806 81.8935C87.5125 82.0694 87.1978 82.1609 86.8771 82.1563H23.1001C22.8059 82.1586 22.5167 82.08 22.2642 81.929C22.0117 81.7781 21.8055 81.5606 21.6683 81.3004C21.5311 81.0401 21.4681 80.7472 21.4862 80.4535C21.5043 80.1599 21.6028 79.8769 21.7709 79.6354L43.5417 48.4229C43.6701 48.2495 43.8321 48.1038 44.0181 47.9945C44.2041 47.8852 44.4103 47.8145 44.6242 47.7867C44.8382 47.7589 45.0555 47.7745 45.2633 47.8326C45.471 47.8908 45.665 47.9902 45.8334 48.125Z" stroke="#EC1F24" stroke-width="7" stroke-linecap="round" stroke-linejoin="round"/>
</svg>
