<svg width="110" height="110" viewBox="0 0 110 110" fill="none" xmlns="http://www.w3.org/2000/svg">
<path d="M37.8125 82.5H72.1875V89.375H37.8125V82.5ZM44.6875 96.25H65.3125V103.125H44.6875V96.25ZM55 6.875C45.8831 6.875 37.1397 10.4966 30.6932 16.9432C24.2466 23.3898 20.625 32.1332 20.625 41.25C20.3925 46.2458 21.3495 51.2255 23.4172 55.7793C25.485 60.3331 28.6043 64.3309 32.5187 67.4438C35.9562 70.6406 37.8125 72.4625 37.8125 75.625H44.6875C44.6875 69.3 40.8718 65.7594 37.1593 62.3562C33.9465 59.8959 31.386 56.6853 29.702 53.0057C28.018 49.3261 27.2619 45.2897 27.5 41.25C27.5 33.9565 30.3973 26.9618 35.5545 21.8046C40.7118 16.6473 47.7065 13.75 55 13.75C62.2934 13.75 69.2882 16.6473 74.4454 21.8046C79.6026 26.9618 82.5 33.9565 82.5 41.25C82.7341 45.2926 81.9727 49.331 80.2826 53.0108C78.5925 56.6907 76.0253 59.8996 72.8062 62.3562C69.1281 65.7937 65.3125 69.2313 65.3125 75.625H72.1875C72.1875 72.4625 74.0093 70.6406 77.4812 67.4094C81.3929 64.3018 84.5108 60.3099 86.5786 55.7621C88.6463 51.2143 89.6047 46.2405 89.375 41.25C89.375 36.7358 88.4858 32.2658 86.7583 28.0953C85.0308 23.9247 82.4988 20.1352 79.3068 16.9432C76.1147 13.7512 72.3253 11.2191 68.1547 9.49164C63.9841 7.76414 59.5142 6.875 55 6.875Z" fill="#EC1F24"/>
</svg>
