<svg width="110" height="110" viewBox="0 0 110 110" fill="none" xmlns="http://www.w3.org/2000/svg">
<path d="M64.1666 45.375V37.5833C66.6874 36.5139 69.2663 35.7118 71.9032 35.1771C74.5402 34.6423 77.3085 34.375 80.2082 34.375C82.1944 34.375 84.1423 34.5278 86.052 34.8333C87.9617 35.1389 89.8332 35.5208 91.6666 35.9791V43.3125C89.8332 42.625 87.9801 42.1086 86.107 41.7633C84.2339 41.418 82.2677 41.2469 80.2082 41.25C77.3055 41.25 74.5173 41.6136 71.8437 42.3408C69.1701 43.068 66.611 44.0794 64.1666 45.375ZM64.1666 70.5833V62.7916C66.6874 61.7222 69.2663 60.9201 71.9032 60.3854C74.5402 59.8507 77.3085 59.5833 80.2082 59.5833C82.1944 59.5833 84.1423 59.7361 86.052 60.0416C87.9617 60.3472 89.8332 60.7291 91.6666 61.1875V68.5208C89.8332 67.8333 87.9801 67.3169 86.107 66.9716C84.2339 66.6264 82.2677 66.4553 80.2082 66.4583C77.3055 66.4583 74.5173 66.8021 71.8437 67.4896C69.1701 68.1771 66.611 69.2083 64.1666 70.5833ZM64.1666 57.9791V50.1875C66.6874 49.118 69.2663 48.316 71.9032 47.7812C74.5402 47.2465 77.3085 46.9791 80.2082 46.9791C82.1944 46.9791 84.1423 47.1319 86.052 47.4375C87.9617 47.743 89.8332 48.125 91.6666 48.5833V55.9166C89.8332 55.2291 87.9801 54.7128 86.107 54.3675C84.2339 54.0222 82.2677 53.8511 80.2082 53.8541C77.3055 53.8541 74.5173 54.2178 71.8437 54.945C69.1701 55.6722 66.611 56.6836 64.1666 57.9791ZM29.7916 73.3333C33.3819 73.3333 36.8774 73.7351 40.2783 74.5387C43.6791 75.3423 47.0585 76.5447 50.4166 78.1458V33C47.2846 31.1666 43.9617 29.7916 40.4478 28.875C36.9339 27.9583 33.3819 27.5 29.7916 27.5C27.0416 27.5 24.3099 27.7673 21.5966 28.3021C18.8833 28.8368 16.2677 29.6389 13.7499 30.7083V76.0833C16.4235 75.1666 19.0788 74.4791 21.7157 74.0208C24.3527 73.5625 27.0446 73.3333 29.7916 73.3333ZM59.5832 78.1458C62.9444 76.5416 66.3238 75.3378 69.7216 74.5341C73.1194 73.7305 76.6149 73.3303 80.2082 73.3333C82.9582 73.3333 85.6517 73.5625 88.2887 74.0208C90.9256 74.4791 93.5794 75.1666 96.2499 76.0833V30.7083C93.7291 29.6389 91.112 28.8368 88.3987 28.3021C85.6853 27.7673 82.9552 27.5 80.2082 27.5C76.618 27.5 73.0659 27.9583 69.552 28.875C66.0381 29.7916 62.7152 31.1666 59.5832 33V78.1458ZM54.9999 91.6666C51.3332 88.7639 47.361 86.5104 43.0832 84.9062C38.8055 83.3021 34.3749 82.5 29.7916 82.5C26.5833 82.5 23.4314 82.9201 20.3362 83.7604C17.2409 84.6007 14.2816 85.7847 11.4583 87.3125C9.85408 88.1528 8.30797 88.1146 6.81992 87.1979C5.33186 86.2812 4.58631 84.9444 4.58325 83.1875V27.9583C4.58325 27.118 4.79409 26.316 5.21575 25.5521C5.63742 24.7882 6.26686 24.2153 7.10408 23.8333C10.618 22 14.2846 20.625 18.1041 19.7083C21.9235 18.7916 25.8194 18.3333 29.7916 18.3333C34.2221 18.3333 38.558 18.9062 42.7991 20.0521C47.0402 21.1979 51.1071 22.9166 54.9999 25.2083C58.8957 22.9166 62.9642 21.1979 67.2053 20.0521C71.4464 18.9062 75.7807 18.3333 80.2082 18.3333C84.1805 18.3333 88.0763 18.7916 91.8957 19.7083C95.7152 20.625 99.3819 22 102.896 23.8333C103.736 24.2153 104.367 24.7882 104.789 25.5521C105.21 26.316 105.42 27.118 105.417 27.9583V83.1875C105.417 84.9444 104.673 86.2812 103.184 87.1979C101.696 88.1146 100.149 88.1528 98.5416 87.3125C95.7152 85.7847 92.7559 84.6007 89.6637 83.7604C86.5714 82.9201 83.4196 82.5 80.2082 82.5C75.6249 82.5 71.1944 83.3021 66.9166 84.9062C62.6388 86.5104 58.6666 88.7639 54.9999 91.6666Z" fill="#EC1F24"/>
</svg>
